<svg width="59" height="33" viewBox="0 0 59 33" fill="none" xmlns="http://www.w3.org/2000/svg">
<path d="M55.9222 8.26967C54.3426 6.55838 52.0927 5.61297 49.5916 5.61297H43.5722V2.35793C43.5722 1.5681 42.926 0.921875 42.1361 0.921875H13.463C12.6732 0.921875 12.0269 1.5681 12.0269 2.35793V7.36017H6.43831C5.64848 7.36017 5.00226 8.00639 5.00226 8.79622C5.00226 9.58605 5.64848 10.2323 6.43831 10.2323H13.4271C13.4391 10.2323 13.451 10.2323 13.463 10.2323C13.463 10.2323 13.463 10.2323 13.475 10.2323C14.2648 10.2323 14.911 9.58605 14.911 8.79622V3.79398H40.7121V7.04902V26.3041H27.1892C27.1294 26.3041 27.0696 26.3041 27.0097 26.316C26.2917 24.5449 24.5565 23.2884 22.534 23.2884C20.4996 23.2884 18.7644 24.5569 18.0583 26.34C17.9506 26.316 17.8549 26.3041 17.7472 26.3041H14.911V21.2899C14.911 20.5 14.2648 19.8538 13.475 19.8538C13.451 19.8538 13.4271 19.8538 13.4032 19.8538C13.3792 19.8538 13.3673 19.8538 13.3433 19.8538H6.43831C5.64848 19.8538 5.00226 20.5 5.00226 21.2899C5.00226 22.0797 5.64848 22.7259 6.43831 22.7259H12.0269V27.7282C12.0269 28.518 12.6732 29.1642 13.463 29.1642H17.7352C17.7711 29.1642 17.7951 29.1642 17.831 29.1642C18.3097 31.3183 20.2364 32.9219 22.534 32.9219C24.8317 32.9219 26.7465 31.3183 27.2371 29.1642H42.1481H44.4458C44.9364 31.3063 46.8512 32.9219 49.1488 32.9219C51.4465 32.9219 53.3613 31.3183 53.8519 29.1642H57.0591C57.8489 29.1642 58.4951 28.518 58.4951 27.7282V15.797C58.4951 12.6975 57.5976 10.0887 55.9222 8.26967ZM22.534 30.0617C21.457 30.0617 20.5834 29.1881 20.5834 28.1111C20.5834 27.0341 21.457 26.1605 22.534 26.1605C23.6111 26.1605 24.4847 27.0341 24.4847 28.1111C24.4847 29.1881 23.6111 30.0617 22.534 30.0617ZM49.1488 30.0617C48.0718 30.0617 47.1982 29.1881 47.1982 28.1111C47.1982 27.0341 48.0718 26.1605 49.1488 26.1605C50.2259 26.1605 51.0995 27.0341 51.0995 28.1111C51.0875 29.1881 50.2139 30.0617 49.1488 30.0617ZM55.623 26.3041H53.6126C52.8945 24.5449 51.1593 23.2884 49.1488 23.2884C47.1384 23.2884 45.4031 24.5329 44.6851 26.3041H43.5842V8.48508H49.6036C53.3732 8.48508 55.623 11.2255 55.623 15.8089V26.3041Z" fill="white"/>
<path d="M24.6642 17.7357C24.1017 18.2981 24.1017 19.2076 24.6642 19.7701C24.9394 20.0453 25.3104 20.1889 25.6814 20.1889C26.0524 20.1889 26.4114 20.0453 26.6986 19.7701L30.3964 16.0722L30.4084 16.0603C30.4323 16.0244 30.4682 16.0004 30.4921 15.9645C30.5041 15.9406 30.5161 15.9286 30.528 15.9047C30.54 15.8808 30.552 15.8688 30.5759 15.8449C30.5879 15.8209 30.5998 15.797 30.6118 15.7731C30.6238 15.7491 30.6357 15.7372 30.6477 15.7132C30.6597 15.6893 30.6716 15.6654 30.6836 15.6414C30.6956 15.6175 30.7076 15.6055 30.7076 15.5816C30.7195 15.5577 30.7195 15.5337 30.7315 15.5098C30.7434 15.4859 30.7435 15.4619 30.7554 15.45C30.7674 15.426 30.7674 15.4021 30.7674 15.3782C30.7674 15.3542 30.7794 15.3303 30.7794 15.3064C30.7794 15.2824 30.7913 15.2585 30.7913 15.2226C30.7913 15.1986 30.8033 15.1867 30.8033 15.1627C30.8153 15.067 30.8153 14.9713 30.8033 14.8755C30.8033 14.8516 30.8033 14.8396 30.7913 14.8157C30.7913 14.7918 30.7794 14.7678 30.7794 14.7319C30.7794 14.708 30.7674 14.6841 30.7674 14.6601C30.7674 14.6362 30.7554 14.6123 30.7554 14.5883C30.7435 14.5644 30.7434 14.5405 30.7315 14.5285C30.7195 14.5046 30.7195 14.4806 30.7076 14.4567C30.6956 14.4328 30.6836 14.4208 30.6836 14.3969C30.6716 14.3729 30.6597 14.349 30.6477 14.3251C30.6357 14.3011 30.6238 14.2892 30.6118 14.2652C30.5998 14.2413 30.5879 14.2174 30.5759 14.1934C30.5639 14.1695 30.552 14.1575 30.528 14.1336C30.5161 14.1096 30.5041 14.0977 30.4921 14.0737C30.4682 14.0378 30.4323 14.0139 30.4084 13.978L30.3964 13.966L26.8781 10.4477C26.3156 9.88527 25.4061 9.88527 24.8437 10.4477C24.2812 11.0102 24.2812 11.9197 24.8437 12.4821L25.9087 13.5472H1.43605C0.646223 13.5472 0 14.1934 0 14.9832C0 15.7731 0.646223 16.4193 1.43605 16.4193H25.8968L24.6642 17.7357Z" fill="white"/>
</svg>
